# xmcd CD database file
#
# Track frame offsets:
#	150
#	14552
#	32694
#	48287
#	67381
#	84990
#	98869
#	111992
#	124276
#	139199
#	150745
#	165261
#	181650
#	198660
#	211356
#	222913
#	235861
#	251211
#	265407
#	276968
#	289564
#	301388
#
# Disc length: 4276 seconds
#
# Revision: 0
# Processed by: cddbd v1.4PL0 Copyright (c) Steve Scherf et al.
# Submitted via: CDex 1.50
#
DISCID=4a10b216
DTITLE=JMU-491Y - JMU-491Y Listening CD
DYEAR=2003
DGENRE=Jazz
TTITLE0=Lester Young_Lady Be Good
TTITLE1=Lester Young_I Want To Be Happy
TTITLE2=Lester Young_Ad Lib Blues
TTITLE3=Lester Young_Blues #1
TTITLE4=Lester Young_Blues #2
TTITLE5=Lester Young_Shoe Shine Boy
TTITLE6=Lester Young_Taxi War Dance
TTITLE7=Lester Young_Tickle Toe
TTITLE8=Lester Young_Lester Leaps In
TTITLE9=Lester Young_Clap Hands...
TTITLE10=Lester Young_Afternoon of a Basie-ite
TTITLE11=Lester Young_Polka Dots and Moonbeams
TTITLE12=Frank Sinatra_I've Got You Under My Skin
TTITLE13=Frank Sinatra_Where or When
TTITLE14=Frank Sinatra_The Shadow of Your Smile
TTITLE15=Frank Sinatra_Fly Me To The Moon
TTITLE16=Frank Sinatra_You Make Me Feel So Young
TTITLE17=Nancy Wilson_Bewitched
TTITLE18=Nancy Wilson_Never Let Me Go
TTITLE19=Nancy Wilson_Save Your Love For Me
TTITLE20=Nancy Wilson_Someone To Watch Over Me
TTITLE21=Nancy Wilson_The Masquerade is Over
EXTD=YEAR: 2003
EXTT0=
EXTT1=
EXTT2=
EXTT3=
EXTT4=
EXTT5=
EXTT6=
EXTT7=
EXTT8=
EXTT9=
EXTT10=
EXTT11=
EXTT12=
EXTT13=
EXTT14=
EXTT15=
EXTT16=
EXTT17=
EXTT18=
EXTT19=
EXTT20=
EXTT21=
PLAYORDER=
